<svg width="32" height="32" viewBox="0 0 32 32" fill="none" xmlns="http://www.w3.org/2000/svg">
<rect x="0.25" y="0.25" width="31.5" height="31.5" rx="3.75" fill="#FBFBFB"/>
<rect x="0.25" y="0.25" width="31.5" height="31.5" rx="3.75" stroke="#E5E5E5" stroke-width="0.5"/>
<path d="M15.9992 25.5269C16.1673 25.4429 20.4523 23.5824 21.8087 22.4661C23.213 21.3018 23.9572 19.6574 23.9572 17.6649V8.33856L23.8372 8.30255C20.4163 6.44208 16.1673 6.56211 15.9632 6.56211C15.7952 6.56211 11.5581 6.44208 8.13724 8.30255L8.05322 8.33856V17.7009C8.05322 19.6934 8.79741 21.3498 10.2018 22.5021C11.5461 23.6184 15.8312 25.4789 15.9992 25.5269Z" fill="#222427"/>
<path d="M23.1914 8.44727C18.5112 8.02569 13.0623 8.33392 8.77148 12.2666L8.78418 17.7354V17.7363C8.78424 19.3853 9.34076 20.7301 10.4043 21.6982L10.624 21.8867L10.625 21.8877C11.1755 22.3407 12.2935 22.9503 13.415 23.5059C14.4545 24.0207 15.4727 24.4761 15.9863 24.6992C16.4993 24.4755 17.5283 24.0098 18.5742 23.4883C19.7003 22.9267 20.8179 22.3169 21.3516 21.8867C22.5571 20.9086 23.1913 19.4485 23.1914 17.7363V8.44727ZM24.3643 17.7002C24.3642 19.7088 23.6417 21.4875 22.0889 22.7773L22.0879 22.7783C21.3593 23.3762 19.8489 24.1751 18.5479 24.8145C17.8921 25.1367 17.2805 25.4225 16.833 25.6279C16.6092 25.7307 16.4259 25.8131 16.2988 25.8701C16.2355 25.8985 16.186 25.9206 16.1523 25.9355C16.1356 25.943 16.123 25.9493 16.1143 25.9531C16.1099 25.9551 16.1058 25.956 16.1035 25.957L16.1016 25.958L16.1006 25.959L16 26.0029L15.8994 25.959H15.8984C15.8979 25.9587 15.8966 25.9575 15.8955 25.957C15.8933 25.956 15.8899 25.9549 15.8857 25.9531C15.877 25.9493 15.8644 25.943 15.8477 25.9355C15.8138 25.9206 15.7639 25.8986 15.7002 25.8701C15.5729 25.8132 15.3892 25.7313 15.165 25.6289C14.7166 25.4241 14.1038 25.1393 13.4473 24.8193C12.1449 24.1846 10.6361 23.3952 9.91406 22.8164L9.91016 22.8135C8.35753 21.5236 7.63581 19.7448 7.63574 17.7363V7.90039L7.7666 7.83008C9.59901 6.83727 11.6616 6.38759 13.2568 6.18457C14.0562 6.08285 14.7427 6.04217 15.2295 6.02734C15.4727 6.01994 15.6664 6.01872 15.7998 6.01953C15.8666 6.01994 15.9188 6.0207 15.9541 6.02148C15.9715 6.02187 15.9849 6.02219 15.9941 6.02246C15.9963 6.02253 15.9983 6.02338 16 6.02344C16.0016 6.02339 16.0038 6.02252 16.0059 6.02246C16.0151 6.02219 16.0285 6.02187 16.0459 6.02148C16.0813 6.0207 16.1333 6.01994 16.2002 6.01953C16.334 6.01872 16.5285 6.01993 16.7725 6.02734C17.2601 6.04217 17.9471 6.08287 18.7471 6.18457C20.3438 6.38758 22.4067 6.83706 24.2334 7.83008L24.3643 7.90137V17.7002Z" fill="white" stroke="#222427" stroke-width="0.5"/>
<path d="M20.5727 16.3686C21.1848 16.7407 21.4369 16.9928 21.4849 17.4489C21.4849 17.941 21.1608 18.2411 20.6207 18.2411C20.1646 18.2411 19.6365 17.989 19.2644 17.6649V18.9853C19.7205 19.2373 20.2486 19.4414 20.8248 19.4414C22.2291 19.4414 22.8893 18.4451 22.8893 17.5329C22.9253 16.7047 22.6852 16.0445 21.4849 15.3364C20.9448 15.0003 20.5367 14.7962 20.5367 14.3041C20.5367 13.812 20.9928 13.5959 21.3649 13.5959C21.857 13.5959 22.3491 13.884 22.6372 14.1721V12.9358C22.3852 12.7317 21.857 12.4436 21.0768 12.4796C20.1286 12.5156 19.1443 13.1878 19.1443 14.3401C19.1683 15.1323 19.4204 15.7084 20.5727 16.3686ZM15.7115 19.3574C15.8315 19.3934 16.0356 19.4414 16.3716 19.4414C17.98 19.4414 18.8803 17.989 18.8803 15.9245C18.8803 13.812 17.932 12.5276 16.2396 12.5276C15.4594 12.5276 14.8352 12.6957 14.3071 13.0198V22.3701H15.7115V19.3574ZM15.7115 13.728C15.8315 13.6919 16.0356 13.6079 16.2036 13.6079C17.0318 13.6079 17.3559 14.2681 17.3559 15.8885C17.3559 17.4609 16.9478 18.2051 16.1196 18.2051C15.9155 18.2051 15.7475 18.1691 15.6635 18.1211V13.728H15.7115ZM11.3784 19.4414C12.2426 19.4414 12.9868 19.2373 13.5269 18.8652V12.6117H12.0866V18.037C11.9185 18.1571 11.7145 18.2051 11.4264 18.2051C10.7662 18.2051 10.6822 17.5809 10.6822 17.2088V12.6117H9.24184V17.1248C9.22984 18.6492 9.97402 19.4414 11.3784 19.4414Z" fill="white"/>
</svg>
