<svg width="32" height="32" viewBox="0 0 32 32" fill="none" xmlns="http://www.w3.org/2000/svg">
<rect width="32" height="32" rx="4" fill="#DC0032"/>
<path fill-rule="evenodd" clip-rule="evenodd" d="M24.0298 9.91016L24.367 10.2895L24.5567 10.1842L24.0298 9.91016Z" fill="white"/>
<path fill-rule="evenodd" clip-rule="evenodd" d="M23.5239 9.63672L24.1773 10.3955L24.4091 10.269L24.1562 9.97395L23.5239 9.63672Z" fill="white"/>
<path fill-rule="evenodd" clip-rule="evenodd" d="M22.9971 9.36133L23.9877 10.4995L24.2195 10.373L23.6504 9.69856L22.9971 9.36133Z" fill="white"/>
<path fill-rule="evenodd" clip-rule="evenodd" d="M22.4912 9.08984L23.798 10.6074L24.0298 10.4809L23.1235 9.42707L22.4912 9.08984ZM24.9993 11.7666L24.8518 11.8509L24.9993 12.0195V11.7666Z" fill="white"/>
<path fill-rule="evenodd" clip-rule="evenodd" d="M21.9854 8.8125L23.6083 10.7094L23.8401 10.5829L22.6177 9.14973L21.9854 8.8125ZM24.915 11.8054L24.6831 11.9529L24.9993 12.3323V11.9318L24.915 11.8054Z" fill="white"/>
<path fill-rule="evenodd" clip-rule="evenodd" d="M21.458 8.53906L23.4181 10.8154L23.6711 10.6889L22.1114 8.87629L21.458 8.53906ZM24.7249 11.9113L24.493 12.0589L24.9989 12.649V12.2485L24.7249 11.9113Z" fill="white"/>
<path fill-rule="evenodd" clip-rule="evenodd" d="M20.9526 8.26562L23.25 10.9213L23.4818 10.7948L21.5849 8.60284L20.9526 8.26562ZM24.5357 12.0383L24.3038 12.1648L24.9993 12.9868V12.5863L24.5357 12.0383Z" fill="white"/>
<path fill-rule="evenodd" clip-rule="evenodd" d="M20.4468 7.99219L23.0603 11.0272L23.2921 10.9008L21.0791 8.32941L20.4468 7.99219ZM24.3459 12.1443L24.1141 12.2707L24.9993 13.3035V12.903L24.3459 12.1443Z" fill="white"/>
<path fill-rule="evenodd" clip-rule="evenodd" d="M19.9199 7.7168L22.8706 11.1312L23.1025 11.0048L20.5733 8.05402L19.9199 7.7168ZM24.1563 12.2483L23.9245 12.3747L24.9994 13.6182V13.2178L24.1563 12.2483Z" fill="white"/>
<path fill-rule="evenodd" clip-rule="evenodd" d="M19.4141 7.44336L22.6809 11.2582L22.9128 11.1107L20.0464 7.78059L19.4141 7.44336ZM23.9666 12.3542L23.7348 12.4807L24.9993 13.956V13.5556L23.9666 12.3542Z" fill="white"/>
<path fill-rule="evenodd" clip-rule="evenodd" d="M18.8872 7.17188L22.4913 11.3661L22.7231 11.2186L19.5406 7.5091L18.8872 7.17188ZM23.7981 12.4621L23.5451 12.5886L24.9994 14.2747V13.8742L23.7981 12.4621Z" fill="white"/>
<path fill-rule="evenodd" clip-rule="evenodd" d="M18.3813 6.89453L22.3016 11.4681L22.5545 11.3206L19.0347 7.23176L18.3813 6.89453ZM23.6084 12.5641L23.3765 12.6906L24.9994 14.6086V14.187L23.6084 12.5641Z" fill="white"/>
<path fill-rule="evenodd" clip-rule="evenodd" d="M17.875 6.62109L22.1325 11.5741L22.3643 11.4265L18.5073 6.95832L17.875 6.62109ZM23.4182 12.6701L23.1863 12.7965L24.9989 14.9253V14.5248L23.4182 12.6701Z" fill="white"/>
<path fill-rule="evenodd" clip-rule="evenodd" d="M17.3481 6.32617L21.9428 11.6796L22.1747 11.5321L18.0015 6.68447L17.3481 6.32617ZM23.2285 12.7756L22.9967 12.9021L24.9989 15.2416V14.8411L23.2285 12.7756Z" fill="white"/>
<path fill-rule="evenodd" clip-rule="evenodd" d="M16.8428 6.05273L21.7536 11.7856L21.9855 11.6591L17.4962 6.41104L16.8428 6.05273ZM23.0393 12.8815L22.8075 13.008L24.9994 15.5793V15.1578L23.0393 12.8815Z" fill="white"/>
<path fill-rule="evenodd" clip-rule="evenodd" d="M16.3364 5.79883L21.5634 11.89L21.7952 11.7635L16.9687 6.13605L16.3364 5.79883ZM22.8491 12.9859L22.6172 13.1124L24.9989 15.8945V15.494L22.8491 12.9859Z" fill="white"/>
<path fill-rule="evenodd" clip-rule="evenodd" d="M15.9995 5.71484L21.374 11.9957L21.6059 11.8692L16.4632 5.86238L16.3367 5.79915C16.2314 5.73592 16.126 5.71484 15.9995 5.71484ZM22.6597 13.0916L22.4279 13.2181L24.9992 16.211V15.8105L22.6597 13.0916Z" fill="white"/>
<path fill-rule="evenodd" clip-rule="evenodd" d="M15.9995 5.71484C15.9152 5.71484 15.8309 5.73592 15.7466 5.757L21.1843 12.101L21.4372 11.9746L16.0627 5.71484C16.0417 5.71484 16.0206 5.71484 15.9995 5.71484ZM22.4911 13.197L22.2592 13.3235L24.9992 16.5482V16.1267L22.4911 13.197Z" fill="white"/>
<path fill-rule="evenodd" clip-rule="evenodd" d="M15.81 5.73633C15.7679 5.7574 15.7047 5.77848 15.6836 5.79956L15.5571 5.86279L21.0159 12.2068L21.2478 12.0804L15.81 5.73633ZM22.3016 13.3028L22.0698 13.4504L24.9994 16.8648V16.4643L22.3016 13.3028Z" fill="white"/>
<path fill-rule="evenodd" clip-rule="evenodd" d="M15.599 5.82031L15.3672 5.94677L20.826 12.3119L21.0579 12.1854L15.599 5.82031ZM22.1117 13.4079L21.8798 13.5554L24.9992 17.1806V16.7801L22.1117 13.4079Z" fill="white"/>
<path fill-rule="evenodd" clip-rule="evenodd" d="M15.4096 5.92773L15.1777 6.05419L20.6366 12.4193L20.8684 12.2929L15.4096 5.92773ZM21.9222 13.5153L21.6904 13.6628L24.9994 17.5199V17.1194L21.9222 13.5153Z" fill="white"/>
<path fill-rule="evenodd" clip-rule="evenodd" d="M15.2196 6.03125L14.9878 6.15771L20.4466 12.5228L20.6785 12.3964L15.2196 6.03125ZM21.7323 13.6188L21.5005 13.7664L24.9992 17.8341V17.4337L21.7323 13.6188Z" fill="white"/>
<path fill-rule="evenodd" clip-rule="evenodd" d="M15.0302 6.13672L14.7983 6.26318L20.2572 12.6283L20.489 12.5018L15.0302 6.13672ZM21.5428 13.7243L21.311 13.8718L24.9994 18.1504V17.7499L21.5428 13.7243Z" fill="white"/>
<path fill-rule="evenodd" clip-rule="evenodd" d="M14.8407 6.24219L14.6089 6.36865L20.0677 12.7338L20.2996 12.6073L14.8407 6.24219ZM21.3745 13.8298L21.1426 13.9773L24.9996 18.4877V18.0872L21.3745 13.8298Z" fill="white"/>
<path fill-rule="evenodd" clip-rule="evenodd" d="M14.6508 6.32617L14.4189 6.47371L19.8989 12.8388L20.1307 12.7124L14.6508 6.32617ZM21.1845 13.9559L20.9527 14.0824L24.9994 18.8035V18.4031L21.1845 13.9559Z" fill="white"/>
<path fill-rule="evenodd" clip-rule="evenodd" d="M14.4608 6.43359L14.229 6.56005L19.7089 12.9463L19.9408 12.8198L14.4608 6.43359ZM20.9946 14.0633L20.7627 14.1898L24.9991 19.1428V18.7213L20.9946 14.0633Z" fill="white"/>
<path fill-rule="evenodd" clip-rule="evenodd" d="M14.2714 6.53711L14.0396 6.66357L19.5195 13.0709L19.7513 12.9233L14.2714 6.53711ZM20.8051 14.1668L20.5733 14.2933L24.9994 19.457V19.0566L20.8051 14.1668Z" fill="white"/>
<path fill-rule="evenodd" clip-rule="evenodd" d="M14.0815 6.64258L13.8496 6.76904L19.3295 13.1763L19.5614 13.0288L14.0815 6.64258ZM20.6152 14.2723L20.3833 14.3988L24.9991 19.7733V19.3728L20.6152 14.2723Z" fill="white"/>
<path fill-rule="evenodd" clip-rule="evenodd" d="M13.8915 6.74805L13.6597 6.87451L19.1396 13.2818L19.3714 13.1343L13.8915 6.74805ZM20.4252 14.3778L20.1934 14.5042L24.9989 20.1106V19.6891L20.4252 14.3778Z" fill="white"/>
<path fill-rule="evenodd" clip-rule="evenodd" d="M13.7016 6.85352L13.4697 6.97998L18.9497 13.3873L19.1815 13.2397L13.7016 6.85352ZM20.2564 14.4833L20.0246 14.6097L24.9986 20.4268V20.0264L20.2564 14.4833Z" fill="white"/>
<path fill-rule="evenodd" clip-rule="evenodd" d="M13.5122 6.9375L13.2593 7.06396L18.7814 13.4923L19.0132 13.3448L13.5122 6.9375ZM20.067 14.5883L19.8352 14.7148L24.9989 20.7427V20.3422L20.067 14.5883Z" fill="white"/>
<path fill-rule="evenodd" clip-rule="evenodd" d="M13.3227 7.04297L13.0698 7.16943L18.613 13.6189C18.6341 13.5767 18.6551 13.5556 18.6973 13.5346L18.8238 13.4503L13.3227 7.04297ZM19.8776 14.6938L19.6457 14.8202L24.957 21.0167C24.9781 20.9535 24.9992 20.8903 24.9992 20.8271V20.6584L19.8776 14.6938Z" fill="white"/>
<path fill-rule="evenodd" clip-rule="evenodd" d="M13.1328 7.14844L12.8799 7.2749L18.5495 13.8719V13.7876C18.5495 13.7243 18.5916 13.64 18.6338 13.5768L13.1328 7.14844ZM19.6876 14.7993L19.519 14.9046C19.4979 14.9046 19.4769 14.9257 19.4558 14.9257L24.8514 21.2276C24.9146 21.1433 24.9568 21.059 24.9778 20.9747L19.6876 14.7993Z" fill="white"/>
<path fill-rule="evenodd" clip-rule="evenodd" d="M12.9433 7.25586L12.6904 7.38232L18.5497 14.2111V13.7896L12.9433 7.25586ZM19.0977 14.8224L24.7041 21.3772C24.7673 21.335 24.8305 21.2507 24.8938 21.1875L19.4982 14.9067C19.4139 14.9488 19.2874 14.9488 19.2031 14.9067L19.0977 14.8224Z" fill="white"/>
<path fill-rule="evenodd" clip-rule="evenodd" d="M12.7539 7.35938L12.501 7.48583L24.5146 21.4807L24.6832 21.3964C24.7043 21.3753 24.7254 21.3542 24.7465 21.3332L19.2244 14.9048H19.2033L18.7186 14.6097C18.6764 14.5887 18.6553 14.5465 18.6132 14.5043C18.571 14.4411 18.571 14.399 18.5499 14.3568V14.125L12.7539 7.35938Z" fill="white"/>
<path fill-rule="evenodd" clip-rule="evenodd" d="M12.564 7.46484L12.311 7.5913L24.3247 21.5862L24.5565 21.4597L12.564 7.46484Z" fill="white"/>
<path fill-rule="evenodd" clip-rule="evenodd" d="M12.374 7.54883L12.1211 7.67529L24.1558 21.6912L24.3876 21.5648L12.374 7.54883Z" fill="white"/>
<path fill-rule="evenodd" clip-rule="evenodd" d="M12.1846 7.6543L11.9316 7.78076L23.9664 21.7967L24.1982 21.6702L12.1846 7.6543Z" fill="white"/>
<path fill-rule="evenodd" clip-rule="evenodd" d="M11.9951 7.76172L11.7422 7.88818L23.7769 21.9041L24.0088 21.7777L11.9951 7.76172Z" fill="white"/>
<path fill-rule="evenodd" clip-rule="evenodd" d="M11.7846 7.86523L11.5527 7.99169L23.5875 22.0287L23.8193 21.8812L11.7846 7.86523Z" fill="white"/>
<path fill-rule="evenodd" clip-rule="evenodd" d="M11.5946 7.9707L11.3628 8.09716L23.3975 22.1342L23.6294 21.9866L11.5946 7.9707Z" fill="white"/>
<path fill-rule="evenodd" clip-rule="evenodd" d="M11.4047 8.07617L11.1729 8.20263L23.2287 22.2397L23.4605 22.0921L11.4047 8.07617Z" fill="white"/>
<path fill-rule="evenodd" clip-rule="evenodd" d="M11.2152 8.16016L10.9834 8.28661L23.0392 22.3447L23.2711 22.1972L11.2152 8.16016Z" fill="white"/>
<path fill-rule="evenodd" clip-rule="evenodd" d="M11.0258 8.26562L10.7939 8.39209L22.8498 22.4502L23.0816 22.3237L11.0258 8.26562Z" fill="white"/>
<path fill-rule="evenodd" clip-rule="evenodd" d="M10.8358 8.37109L10.604 8.49755L16.4633 15.3264L16.653 15.4528C16.7373 15.495 16.8216 15.6004 16.8216 15.7057V15.7268L22.6598 22.5557L22.8917 22.4292L10.8358 8.37109Z" fill="white"/>
<path fill-rule="evenodd" clip-rule="evenodd" d="M10.6464 8.47656L10.4146 8.60301L15.9156 15.0314L16.6111 15.4107L10.6464 8.47656ZM16.8007 15.6426C16.8007 15.6637 16.8218 15.6847 16.8218 15.7058V16.0641L22.4704 22.6611L22.7022 22.5347L16.8007 15.6426Z" fill="white"/>
<path fill-rule="evenodd" clip-rule="evenodd" d="M10.4565 8.58398L10.2246 8.71044L15.3673 14.7173L16.0628 15.0967L10.4565 8.58398ZM16.8216 15.9819V16.3823L22.3015 22.7686L22.5333 22.6421L16.8216 15.9819Z" fill="white"/>
<path fill-rule="evenodd" clip-rule="evenodd" d="M10.267 8.6875L10.0352 8.81396L14.8406 14.3993L15.5151 14.7787L10.267 8.6875ZM16.8218 16.2961V16.7177L22.112 22.872L22.3439 22.7456L16.8218 16.2961Z" fill="white"/>
<path fill-rule="evenodd" clip-rule="evenodd" d="M10.0771 8.77148L9.84521 8.89794L14.2924 14.0828L14.9668 14.4833L10.0771 8.77148ZM16.8216 16.6331V17.0335L21.9221 22.9771L22.1539 22.8506L16.8216 16.6331Z" fill="white"/>
<path fill-rule="evenodd" clip-rule="evenodd" d="M9.8876 8.87695L9.65576 9.00341L13.7446 13.7667L14.4191 14.1672L9.8876 8.87695ZM16.8218 16.9493V17.3497L21.7326 23.0826L21.9645 22.9561L16.8218 16.9493Z" fill="white"/>
<path fill-rule="evenodd" clip-rule="evenodd" d="M9.69766 8.98242L9.46582 9.10888L13.1964 13.4717L13.8708 13.8511L9.69766 8.98242ZM16.8215 17.2655V17.6871L21.5427 23.2091L21.7745 23.0616L16.8215 17.2655Z" fill="white"/>
<path fill-rule="evenodd" clip-rule="evenodd" d="M9.50772 9.08984L9.27588 9.2163L12.6481 13.1576L13.3226 13.537L9.50772 9.08984ZM16.8213 17.6048V18.0053L21.3738 23.3165L21.6057 23.169L16.8213 17.6048Z" fill="white"/>
<path fill-rule="evenodd" clip-rule="evenodd" d="M9.31778 9.19336L9.08594 9.31982L12.0999 12.8396L12.7954 13.219L9.31778 9.19336ZM16.821 17.9191V18.3195L21.1839 23.4201L21.4157 23.2725L16.821 17.9191Z" fill="white"/>
<path fill-rule="evenodd" clip-rule="evenodd" d="M9.12833 9.29883L8.89648 9.42529L11.5521 12.5235L12.2477 12.924L9.12833 9.29883ZM14.6504 16.1276L15.1984 16.7599V16.5281C15.1984 16.4859 15.1562 16.4227 15.1141 16.4016L14.6504 16.1276ZM16.8213 18.2353V18.6568L20.9944 23.5255L21.2263 23.378L16.8213 18.2353Z" fill="white"/>
<path fill-rule="evenodd" clip-rule="evenodd" d="M8.93887 9.38281L8.70703 9.50927L11.0044 12.2071L11.6999 12.6075L8.93887 9.38281ZM14.1026 15.8112L15.1986 17.0758V16.6753L14.7982 16.2116L14.1026 15.8112ZM16.8215 18.5722V18.9727L20.805 23.6306L21.0368 23.5041L16.8215 18.5722Z" fill="white"/>
<path fill-rule="evenodd" clip-rule="evenodd" d="M8.74893 9.48828L8.51709 9.61474L10.4772 11.9121L11.1517 12.2915L8.74893 9.48828ZM13.5544 15.5162L15.1984 17.4131V17.0126L14.2499 15.8956L13.5544 15.5162ZM16.8213 18.8885V19.2889L20.615 23.736L20.8469 23.6096L16.8213 18.8885Z" fill="white"/>
<path fill-rule="evenodd" clip-rule="evenodd" d="M8.55948 9.59375L8.32764 9.72021L9.92945 11.596L10.6039 11.9754L8.55948 9.59375ZM13.0277 15.2001L15.1986 17.7293V17.3289L13.7022 15.5795L13.0277 15.2001ZM16.8215 19.2257V19.6262L20.4467 23.8415L20.6785 23.7151L16.8215 19.2257Z" fill="white"/>
<path fill-rule="evenodd" clip-rule="evenodd" d="M8.36954 9.69922L8.1377 9.82568L9.38122 11.28L10.0557 11.6593L8.36954 9.69922ZM12.4795 14.8841L15.1984 18.0456V17.6451L13.1539 15.2845L12.4795 14.8841ZM16.8212 19.542V19.9424L20.2567 23.947L20.4886 23.8205L16.8212 19.542Z" fill="white"/>
<path fill-rule="evenodd" clip-rule="evenodd" d="M8.18008 9.80273L7.94824 9.92919L8.83346 10.962L9.50791 11.3624L8.18008 9.80273ZM11.9317 14.5661L15.1986 18.3809V17.9805L12.6062 14.9665L11.9317 14.5661ZM16.8215 19.8563V20.2567L20.0673 24.0505L20.2991 23.924L16.8215 19.8563Z" fill="white"/>
<path fill-rule="evenodd" clip-rule="evenodd" d="M7.99014 9.91016L7.7583 10.0366L8.28522 10.6478L8.98074 11.0483L7.99014 9.91016ZM11.3835 14.273L15.1983 18.6991V18.2986L12.0579 14.6524L11.3835 14.273ZM16.8212 20.1955V20.596L19.8774 24.1579L20.1092 24.0315L16.8212 20.1955Z" fill="white"/>
<path fill-rule="evenodd" clip-rule="evenodd" d="M7.80077 9.99414L7.54785 10.1206L7.73754 10.3524L8.43307 10.7318L7.80077 9.99414ZM10.8358 13.9565L15.1987 19.036V18.6145L11.5313 14.3359L10.8358 13.9565ZM16.8215 20.5114V20.9118L19.688 24.2841L19.9198 24.1365L16.8215 20.5114Z" fill="white"/>
<path fill-rule="evenodd" clip-rule="evenodd" d="M7.61091 10.0996L7.46338 10.1839L7.88491 10.4158L7.61091 10.0996ZM10.2876 13.6405L15.1985 19.3522V18.9518L10.9832 14.0409L10.2876 13.6405ZM16.8214 20.8276V21.2491L19.5192 24.3895L19.751 24.242L16.8214 20.8276Z" fill="white"/>
<path fill-rule="evenodd" clip-rule="evenodd" d="M9.76123 13.3242L15.199 19.6683V19.2678L10.4357 13.7247L9.76123 13.3242ZM16.8219 21.1647V21.5652L19.33 24.4948L19.5619 24.3473L16.8219 21.1647Z" fill="white"/>
<path fill-rule="evenodd" clip-rule="evenodd" d="M9.2124 13.0312L15.1982 20.0076V19.5861L9.88685 13.4106L9.2124 13.0312ZM16.821 21.483V21.8834L19.1395 24.6023L19.3713 24.4548L16.821 21.483Z" fill="white"/>
<path fill-rule="evenodd" clip-rule="evenodd" d="M8.66455 12.7148L15.1983 20.3235V19.923L9.339 13.0942L8.66455 12.7148ZM16.8212 21.7989V22.2204L18.9499 24.7074L19.1818 24.581L16.8212 21.7989Z" fill="white"/>
<path fill-rule="evenodd" clip-rule="evenodd" d="M8.1167 12.3965L15.1984 20.6374V20.237L8.79115 12.7969L8.1167 12.3965ZM16.8213 22.1339V22.5343L18.7604 24.8106L18.9922 24.6841L16.8213 22.1339Z" fill="white"/>
<path fill-rule="evenodd" clip-rule="evenodd" d="M7.56885 12.0801L15.1986 20.9744V20.574L8.2433 12.4805L7.56885 12.0801ZM16.8215 22.4498V22.8502L18.5919 24.9157L18.8237 24.7893L16.8215 22.4498Z" fill="white"/>
<path fill-rule="evenodd" clip-rule="evenodd" d="M7.021 11.7852L15.1987 21.2907V20.8903L7.71652 12.1645L7.021 11.7852ZM16.8216 22.7661V23.1876L18.4024 25.0213L18.6342 24.8948L16.8216 22.7661Z" fill="white"/>
<path fill-rule="evenodd" clip-rule="evenodd" d="M7 11.7656V12.0607L15.1988 21.6084V21.208L7.16861 11.8499L7 11.7656ZM16.8217 23.1048V23.3577C16.8217 23.3999 16.8006 23.4421 16.7795 23.4631L18.2127 25.1282L18.4446 25.0017L16.8217 23.1048Z" fill="white"/>
<path fill-rule="evenodd" clip-rule="evenodd" d="M7 11.9766V12.3981L15.1988 21.9458V21.5453L7 11.9766ZM16.8006 23.4212C16.7795 23.5055 16.7163 23.5898 16.6531 23.6108L16.632 23.6319L18.0231 25.2338L18.2549 25.1073L16.8006 23.4212Z" fill="white"/>
<path fill-rule="evenodd" clip-rule="evenodd" d="M7 12.3125V12.713L15.1988 22.2607V21.8602L7 12.3125ZM16.6741 23.5885C16.6741 23.6096 16.6741 23.6096 16.6531 23.6096L16.4423 23.736L17.8334 25.3378L18.0652 25.2114L16.6741 23.5885Z" fill="white"/>
<path fill-rule="evenodd" clip-rule="evenodd" d="M7 12.6289V13.0294L15.1988 22.5771V22.1766L7 12.6289ZM16.5055 23.6941L16.2526 23.8417L17.6648 25.4646L17.8966 25.317L16.5055 23.6941Z" fill="white"/>
<path fill-rule="evenodd" clip-rule="evenodd" d="M7 12.9668V13.3673L15.1988 22.9149V22.5145L7 12.9668ZM16.3159 23.8002L16.1683 23.8845C16.1262 23.9055 16.084 23.9055 16.0419 23.9055L17.4751 25.5706L17.7069 25.4231L16.3159 23.8002Z" fill="white"/>
<path fill-rule="evenodd" clip-rule="evenodd" d="M7 13.2832V13.6837L15.1988 23.2313V22.8309L7 13.2832ZM15.6625 23.8004L17.2854 25.6762L17.5172 25.5287L16.1051 23.9058C16.084 23.9058 16.0419 23.9269 16.0208 23.9269H15.9997C15.9365 23.9269 15.8943 23.9058 15.8522 23.8847L15.6625 23.8004Z" fill="white"/>
<path fill-rule="evenodd" clip-rule="evenodd" d="M7 13.5977V14.0192L17.0957 25.7799L17.3275 25.6324L15.81 23.8619L15.3463 23.609C15.262 23.5669 15.1988 23.4615 15.1988 23.3561V23.1453L7 13.5977Z" fill="white"/>
<path fill-rule="evenodd" clip-rule="evenodd" d="M7 13.9336V14.3341L16.906 25.884L17.1378 25.7576L7 13.9336Z" fill="white"/>
<path fill-rule="evenodd" clip-rule="evenodd" d="M7 14.25V14.6505L16.7163 25.9897L16.9481 25.8632L7 14.25Z" fill="white"/>
<path fill-rule="evenodd" clip-rule="evenodd" d="M7 14.5684V14.9899L16.5477 26.0973L16.7795 25.9708L7 14.5684Z" fill="white"/>
<path fill-rule="evenodd" clip-rule="evenodd" d="M7 14.9043V15.3047L16.358 26.2013L16.5898 26.0749L7 14.9043Z" fill="white"/>
<path fill-rule="evenodd" clip-rule="evenodd" d="M7 15.2207V15.6212L16.1473 26.2859C16.2105 26.2649 16.2737 26.2438 16.3369 26.2227L16.4002 26.1806L7 15.2207Z" fill="white"/>
<path fill-rule="evenodd" clip-rule="evenodd" d="M7 15.5371V15.9586L15.8733 26.2862C15.9154 26.2862 15.9576 26.2862 15.9997 26.2862C16.0629 26.2862 16.1262 26.2862 16.1894 26.2651L7 15.5371Z" fill="white"/>
<path fill-rule="evenodd" clip-rule="evenodd" d="M7 15.875V16.2755L15.3885 26.055L15.6836 26.2236C15.7468 26.2658 15.8522 26.2869 15.9365 26.2869L7 15.875Z" fill="white"/>
<path fill-rule="evenodd" clip-rule="evenodd" d="M7 16.1914V16.5919L14.8405 25.7391L15.536 26.1396L7 16.1914Z" fill="white"/>
<path fill-rule="evenodd" clip-rule="evenodd" d="M7 16.5273V16.9278L14.2925 25.4217L14.988 25.8221L7 16.5273Z" fill="white"/>
<path fill-rule="evenodd" clip-rule="evenodd" d="M7 16.8438V17.2442L13.7445 25.1058L14.419 25.5062L7 16.8438Z" fill="white"/>
<path fill-rule="evenodd" clip-rule="evenodd" d="M7 17.1602V17.5606L13.1965 24.7899L13.871 25.1903L7 17.1602Z" fill="white"/>
<path fill-rule="evenodd" clip-rule="evenodd" d="M7 17.4961V17.8966L12.6275 24.4514L13.323 24.8518L7 17.4961Z" fill="white"/>
<path fill-rule="evenodd" clip-rule="evenodd" d="M7 17.8145V18.2149L12.0795 24.1374L12.775 24.5379L7 17.8145Z" fill="white"/>
<path fill-rule="evenodd" clip-rule="evenodd" d="M7 18.1289V18.5294L11.5315 23.8196L12.227 24.22L7 18.1289Z" fill="white"/>
<path fill-rule="evenodd" clip-rule="evenodd" d="M7 18.4648V18.8653L10.9835 23.5021L11.679 23.9026L7 18.4648Z" fill="white"/>
<path fill-rule="evenodd" clip-rule="evenodd" d="M7 18.7832V19.1836L10.4355 23.1882L11.131 23.5886L7 18.7832Z" fill="white"/>
<path fill-rule="evenodd" clip-rule="evenodd" d="M7 19.0996V19.5211L9.88749 22.8723L10.5619 23.2728L7 19.0996Z" fill="white"/>
<path fill-rule="evenodd" clip-rule="evenodd" d="M7 19.4355V19.836L9.31842 22.5549L10.0139 22.9553L7 19.4355Z" fill="white"/>
<path fill-rule="evenodd" clip-rule="evenodd" d="M7 19.7539V20.1544L8.77043 22.241L9.46596 22.6203L7 19.7539Z" fill="white"/>
<path fill-rule="evenodd" clip-rule="evenodd" d="M7 20.0684V20.4899L8.22244 21.902L8.91797 22.3025L7 20.0684Z" fill="white"/>
<path fill-rule="evenodd" clip-rule="evenodd" d="M7 20.4062V20.8067L7.67445 21.5865L8.36998 21.987L7 20.4062Z" fill="white"/>
<path fill-rule="evenodd" clip-rule="evenodd" d="M7 20.7227V20.828C7 21.0388 7.14754 21.2917 7.31615 21.3971L7.82199 21.6711L7 20.7227Z" fill="white"/>
<path fill-rule="evenodd" clip-rule="evenodd" d="M7.12598 21.207C7.16813 21.2492 7.18921 21.2913 7.23136 21.3124L7.12598 21.207Z" fill="white"/>
</svg>
