<svg width="32" height="32" viewBox="0 0 32 32" fill="none" xmlns="http://www.w3.org/2000/svg">
<rect x="0.25" y="0.25" width="31.5" height="31.5" rx="3.75" fill="#FBFBFB"/>
<rect x="0.25" y="0.25" width="31.5" height="31.5" rx="3.75" stroke="#E5E5E5" stroke-width="0.5"/>
<path d="M15.9992 25.5269C16.1673 25.4429 20.4523 23.5824 21.8087 22.4661C23.213 21.3018 23.9572 19.6574 23.9572 17.6649V8.33856L23.8372 8.30255C20.4163 6.44208 16.1673 6.56211 15.9632 6.56211C15.7952 6.56211 11.5581 6.44208 8.13724 8.30255L8.05322 8.33856V17.7009C8.05322 19.6934 8.79741 21.3498 10.2018 22.5021C11.5461 23.6184 15.8312 25.4789 15.9992 25.5269Z" fill="#FBFBFB"/>
<path d="M15.9998 25.7301C15.9998 25.7301 11.4626 23.7376 10.0703 22.6213C8.58192 21.385 7.88574 19.6806 7.88574 17.7361V8.04963C11.4746 6.10514 15.9998 6.27318 15.9998 6.27318C15.9998 6.27318 20.5369 6.10514 24.1138 8.04963V17.7001C24.1138 19.6445 23.4177 21.349 21.9293 22.5853C20.5249 23.7376 15.9998 25.7301 15.9998 25.7301ZM8.5339 17.7361C8.5339 19.5605 9.19407 21.0489 10.4664 22.0812C11.6187 23.0294 15.0395 24.5658 15.9878 24.9739C16.936 24.5658 20.3929 22.9814 21.5092 22.0812C22.7815 21.0489 23.4417 19.5125 23.4417 17.7361V8.21767C18.6645 7.76156 12.975 8.01362 8.5219 12.1547L8.5339 17.7361Z" fill="#222427"/>
<path d="M20.5727 16.3686C21.1848 16.7407 21.4369 16.9928 21.4849 17.4489C21.4849 17.941 21.1608 18.2411 20.6207 18.2411C20.1646 18.2411 19.6365 17.989 19.2644 17.6649V18.9853C19.7205 19.2373 20.2486 19.4414 20.8248 19.4414C22.2291 19.4414 22.8893 18.4451 22.8893 17.5329C22.9253 16.7047 22.6852 16.0445 21.4849 15.3364C20.9448 15.0003 20.5367 14.7962 20.5367 14.3041C20.5367 13.812 20.9928 13.5959 21.3649 13.5959C21.857 13.5959 22.3491 13.884 22.6372 14.1721V12.9358C22.3852 12.7317 21.857 12.4436 21.0768 12.4796C20.1286 12.5156 19.1443 13.1878 19.1443 14.3401C19.1683 15.1323 19.4204 15.7084 20.5727 16.3686ZM15.7115 19.3574C15.8315 19.3934 16.0356 19.4414 16.3716 19.4414C17.98 19.4414 18.8803 17.989 18.8803 15.9245C18.8803 13.812 17.932 12.5276 16.2396 12.5276C15.4594 12.5276 14.8352 12.6957 14.3071 13.0198V22.3701H15.7115V19.3574ZM15.7115 13.728C15.8315 13.6919 16.0356 13.6079 16.2036 13.6079C17.0318 13.6079 17.3559 14.2681 17.3559 15.8885C17.3559 17.4609 16.9478 18.2051 16.1196 18.2051C15.9155 18.2051 15.7475 18.1691 15.6635 18.1211V13.728H15.7115ZM11.3784 19.4414C12.2426 19.4414 12.9868 19.2373 13.5269 18.8652V12.6117H12.0866V18.037C11.9185 18.1571 11.7145 18.2051 11.4264 18.2051C10.7662 18.2051 10.6822 17.5809 10.6822 17.2088V12.6117H9.24184V17.1248C9.22984 18.6492 9.97402 19.4414 11.3784 19.4414Z" fill="#222427"/>
</svg>
