<svg width="33" height="32" viewBox="0 0 33 32" fill="none" xmlns="http://www.w3.org/2000/svg">
<rect x="0.0683594" width="32" height="32" rx="4" fill="#FECC00"/>
<g clip-path="url(#clip0_588_3273)">
<path d="M0.000488281 19.5454V12.4531H32.1373V19.5454H0.000488281Z" fill="#FECC00"/>
<path d="M10.3621 15.4183C10.2217 15.6085 9.98668 15.9391 9.84369 16.1322C9.7711 16.2304 9.63999 16.4087 10.0746 16.4087C10.5345 16.4087 12.3631 16.4087 12.3631 16.4087C12.3631 16.4087 12.7319 15.9069 13.0411 15.4872C13.4617 14.9164 13.0775 13.7285 11.5739 13.7285C10.2281 13.7285 5.65224 13.7285 5.65224 13.7285L4.62549 15.1235C4.62549 15.1235 9.94828 15.1235 10.2215 15.1235C10.504 15.1235 10.5001 15.2311 10.3621 15.4183ZM8.6809 16.7528C8.24625 16.7528 8.37736 16.5741 8.44995 16.4759C8.59295 16.2828 8.83176 15.9557 8.97219 15.7655C9.11043 15.5783 9.11409 15.4708 8.83121 15.4708C8.5582 15.4708 6.27194 15.4708 6.27194 15.4708L4.20986 18.2732C4.20986 18.2732 7.89279 18.2732 9.23861 18.2732C10.8995 18.2732 11.8242 17.1436 12.1093 16.753C12.1093 16.7528 9.1406 16.7528 8.6809 16.7528ZM11.9522 18.2732H14.9022L16.0206 16.7526L13.0709 16.753C13.07 16.7528 11.9522 18.2732 11.9522 18.2732ZM19.5636 13.7285L18.4321 15.2654H17.1156L18.2465 13.7285H15.2974L13.3244 16.4087H20.5399L22.5124 13.7285H19.5636ZM16.2188 18.2732H19.1678L20.2867 16.753H17.3377C17.3366 16.7528 16.2188 18.2732 16.2188 18.2732ZM0.000488281 17.3526V17.6755H4.10892L4.34627 17.3526H0.000488281ZM4.78787 16.7528H0.000488281V17.0754H4.54997L4.78787 16.7528ZM0.000488281 18.2732H3.66879L3.90504 17.9522H0.000488281V18.2732ZM27.8079 17.6753H32.1373V17.3524H28.0457L27.8079 17.6753ZM27.3682 18.2732H32.1373V17.9522H27.6042L27.3682 18.2732ZM28.4865 16.7528L28.2494 17.0757H32.1373V16.7528H28.4865ZM24.6238 16.4087L26.5967 13.7285H23.4733C23.4722 13.7285 21.499 16.4087 21.499 16.4087H24.6238ZM21.2461 16.7528C21.2461 16.7528 21.0305 17.0474 20.9257 17.1893C20.5555 17.6896 20.883 18.2732 22.0916 18.2732C23.4879 18.2732 26.8278 18.2732 26.8278 18.2732L27.9467 16.753L21.2461 16.7528Z" fill="#D50029"/>
</g>
<defs>
<clipPath id="clip0_588_3273">
<rect width="32.1368" height="7.0923" fill="white" transform="translate(0 12.4531)"/>
</clipPath>
</defs>
</svg>
