<svg width="167" height="40" viewBox="0 0 167 40" fill="none" xmlns="http://www.w3.org/2000/svg">
<g clip-path="url(#clip0_440_3491)">
<path d="M22.8877 8.9283L20.4588 4.99473C20.4197 4.93767 20.3442 4.92076 20.2856 4.95736C19.6361 5.36337 16.4164 7.21514 15.7272 7.21624C15.1056 7.21723 14.33 1.73016 14.1651 0.957971C14.154 0.905599 14.1126 0.866175 14.06 0.857487L8.87972 0.00177526C8.80448 -0.0106567 8.73504 0.0436273 8.73011 0.120087C8.66904 1.06714 8.41972 6.7895 7.89673 6.85494C7.2908 6.93075 4.63154 6.16495 1.81596 5.1041C1.74767 5.07837 1.67146 5.1144 1.64839 5.18392L0.00700154 10.1312C-0.0133902 10.1927 0.0117432 10.2579 0.0695983 10.2866C1.6497 11.0681 6.15425 13.6568 6.14748 13.9888C6.13601 14.5513 2.72621 19.3104 2.10488 20.0615C2.05647 20.1201 2.06886 20.2072 2.13117 20.2505L8.30125 24.537C8.36402 24.5806 8.44996 24.5613 8.48695 24.4942C8.99793 23.5677 12.2685 17.8059 12.8076 17.8204C13.3696 17.8355 17.4412 21.0149 18.6536 22.0363C18.7077 22.0819 18.7872 22.075 18.8334 22.0213L22.181 18.1235C22.2235 18.0724 22.2207 17.9973 22.1742 17.9498C21.6002 17.3633 18.0682 13.8196 17.9655 13.2397C17.8869 12.7965 22.0627 9.60447 22.8621 9.10296C22.9196 9.06691 22.9261 8.98437 22.8877 8.9283Z" fill="#212427"/>
<path d="M47.7764 20.7883C47.7764 15.0767 43.4546 10.0679 37.5149 10.5052C31.8148 10.9249 27.8097 16.2386 28.3289 21.9572C28.823 27.3995 32.7621 31.5161 38.3857 31.5161C40.8341 31.5161 43.3437 30.7524 45.2816 29.2695C45.7168 28.9364 46.1308 28.5764 46.5018 28.1718C46.578 28.0887 46.5656 27.9571 46.4774 27.887L43.5182 25.5359C43.4425 25.4757 43.3348 25.4855 43.2683 25.5558C42.8555 25.9919 42.3666 26.3556 41.8338 26.6494C40.7958 27.2221 39.5882 27.5218 38.4243 27.5218C35.33 27.5218 33.5203 25.5306 32.8149 22.7462C32.7981 22.6796 32.8489 22.6144 32.9174 22.6144H47.5863C47.6913 22.6144 47.7764 22.5289 47.7764 22.4234V20.7883ZM32.99 18.772C32.9225 18.772 32.8718 18.7081 32.8872 18.642C33.5153 15.9476 35.1391 14.473 38.0832 14.473C40.8353 14.473 42.4186 16.1979 43.0841 18.6383C43.1024 18.7054 43.0513 18.772 42.9821 18.772H32.99Z" fill="#212427"/>
<path d="M72.1651 31.0976H68.3422C68.2372 31.0976 68.1521 31.0121 68.1521 30.9066V28.1782C68.1521 27.9904 67.9151 27.9189 67.8055 28.0711C66.1858 30.3205 63.8538 31.7063 60.5034 31.7063C54.7484 31.7063 50.4692 27.1032 50.4692 21.4348C50.4692 15.0436 54.3697 10.4785 60.5412 10.4785C63.4292 10.4785 66.1855 11.7288 67.8061 13.8932C67.9181 14.0429 68.1521 13.9722 68.1521 13.7849V11.1641C68.1521 11.0586 68.2372 10.9731 68.3422 10.9731H72.1651C72.2701 10.9731 72.3552 11.0586 72.3552 11.1641V30.9066C72.3552 31.0121 72.27 31.0976 72.1651 31.0976ZM60.7305 14.5873C57.0578 14.5873 54.8239 17.973 54.8239 21.1684C54.8239 24.5544 57.2849 27.5599 60.7305 27.5599C64.2646 27.5599 66.7159 24.2972 67.8258 21.1973C67.8414 21.1538 67.8417 21.1075 67.8264 21.0639C66.7921 18.11 64.4514 14.5873 60.7305 14.5873Z" fill="#212427"/>
<path d="M78.2454 25.712C78.3145 25.639 78.4269 25.6345 78.503 25.7001C80.1046 27.0792 82.0268 27.979 84.1994 27.979C85.4488 27.979 88.1376 27.5985 88.1376 25.9245C88.1376 24.8973 87.1146 24.3269 86.0923 23.9085C84.9946 23.4518 83.5181 23.0713 82.0794 22.5767C79.1634 21.5117 76.513 19.99 76.513 16.414C76.513 12.2673 80.148 10.251 83.9723 10.251C86.7453 10.251 89.5542 11.2304 91.5885 13.1538C91.6682 13.2291 91.6681 13.3591 91.5898 13.4359L88.8303 16.1389C88.7595 16.2083 88.6499 16.2093 88.5761 16.1432C87.3374 15.034 85.6552 14.3595 83.9723 14.3595C82.7984 14.3595 80.7161 14.7021 80.7161 16.2617C80.7161 17.3271 81.7384 17.8596 82.7984 18.278L86.8121 19.6094C89.6896 20.6366 92.3777 22.1965 92.3777 25.9245C92.3777 30.1094 88.0237 32.0875 84.1994 32.0875C80.9342 32.0875 78.0321 30.9914 75.601 28.7989C75.5204 28.7262 75.5153 28.5977 75.5898 28.5189L78.2454 25.712Z" fill="#212427"/>
<path d="M98.6293 34.1579C98.6645 34.1071 98.7321 34.0978 98.7803 34.1363C100.29 35.3437 102.404 35.9295 104.335 35.9295C109.447 35.9295 110.734 32.2316 110.734 29.0862V27.1597C110.734 27.055 110.599 27.0142 110.542 27.1019C108.795 29.7965 106.616 31.7066 102.783 31.7066C98.0498 31.7066 95.3994 28.3209 95.3994 23.3753V11.0789C95.3994 11.0206 95.4464 10.9734 95.5043 10.9734H99.5352C99.5932 10.9734 99.6402 11.0206 99.6402 11.0789V23.2994C99.6402 25.658 100.738 27.4458 103.199 27.4458C106.789 27.4458 109.586 22.7108 110.764 19.7419C110.769 19.7294 110.772 19.7162 110.772 19.7026V11.041C110.772 10.9827 110.819 10.9355 110.877 10.9355H114.87C114.928 10.9355 114.975 10.9827 114.975 11.041V29.0058C114.975 36.1959 110.734 40 104.184 40C101.491 40 98.5034 39.258 96.3505 37.627C96.3054 37.5928 96.2956 37.5283 96.3279 37.4817L98.6293 34.1579Z" fill="#212427"/>
<path d="M122.966 31.0982H119.105C119 31.0982 118.915 31.0127 118.915 30.9072V2.56695C118.915 2.46148 119 2.37598 119.105 2.37598H122.966C123.071 2.37598 123.156 2.46148 123.156 2.56695V13.7855C123.156 13.9728 123.39 14.0435 123.502 13.8938C125.122 11.7294 127.879 10.4791 130.767 10.4791C136.938 10.4791 140.8 15.0442 140.8 21.4354C140.8 27.1039 136.522 31.7069 130.804 31.7069C127.419 31.7069 125.118 30.3215 123.503 28.0725C123.393 27.9201 123.156 27.9917 123.156 28.1796V30.9072C123.156 31.0127 123.071 31.0982 122.966 31.0982ZM130.577 27.5605C133.985 27.5605 136.484 24.555 136.484 21.169C136.484 17.9736 134.25 14.5879 130.54 14.5879C126.857 14.5879 124.518 18.1091 123.445 21.0626C123.429 21.1074 123.429 21.1553 123.446 21.2001C124.593 24.2993 127.044 27.5605 130.577 27.5605Z" fill="#212427"/>
<path d="M146.758 2.37598C148.5 2.37598 149.674 3.40309 149.674 5.19124C149.674 6.94112 148.5 7.96823 146.758 7.96823C145.055 7.96823 143.843 6.94112 143.843 5.19124C143.843 3.40309 145.055 2.37598 146.758 2.37598ZM144.866 11.1261H148.878C148.983 11.1261 149.068 11.2116 149.068 11.3171V30.8694C149.068 30.9749 148.983 31.0604 148.878 31.0604H144.866C144.761 31.0604 144.676 30.9749 144.676 30.8694V11.3171C144.676 11.2116 144.761 11.1261 144.866 11.1261Z" fill="#212427"/>
<path d="M153.396 30.869V2.49078C153.396 2.3853 153.482 2.2998 153.587 2.2998H157.447C157.552 2.2998 157.637 2.3853 157.637 2.49078V30.869C157.637 30.9745 157.552 31.06 157.447 31.06H153.587C153.482 31.06 153.396 30.9745 153.396 30.869Z" fill="#212427"/>
<path d="M161.835 30.869V2.49078C161.835 2.3853 161.92 2.2998 162.025 2.2998H165.886C165.991 2.2998 166.076 2.3853 166.076 2.49078V30.869C166.076 30.9745 165.991 31.06 165.886 31.06H162.025C161.92 31.06 161.835 30.9745 161.835 30.869Z" fill="#212427"/>
</g>
<defs>
<clipPath id="clip0_440_3491">
<rect width="167" height="40" fill="white"/>
</clipPath>
</defs>
</svg>
