<svg width="32" height="32" viewBox="0 0 32 32" fill="none" xmlns="http://www.w3.org/2000/svg">
<rect x="0.25" y="0.25" width="31.5" height="31.5" rx="3.75" fill="#FBFBFB"/>
<rect x="0.25" y="0.25" width="31.5" height="31.5" rx="3.75" stroke="#E5E5E5" stroke-width="0.5"/>
<path fill-rule="evenodd" clip-rule="evenodd" d="M23.1377 10.5859L23.4374 10.9232L23.6061 10.8295L23.1377 10.5859Z" fill="#222427"/>
<path fill-rule="evenodd" clip-rule="evenodd" d="M22.6875 10.3438L23.2683 11.0182L23.4744 10.9058L23.2495 10.6435L22.6875 10.3438Z" fill="#222427"/>
<path fill-rule="evenodd" clip-rule="evenodd" d="M22.2197 10.0996L23.1003 11.1113L23.3064 10.9989L22.8005 10.3994L22.2197 10.0996Z" fill="#222427"/>
<path fill-rule="evenodd" clip-rule="evenodd" d="M21.7705 9.85742L22.9321 11.2064L23.1382 11.094L22.3326 10.1572L21.7705 9.85742ZM24 12.2368L23.8689 12.3118L24 12.4617V12.2368Z" fill="#222427"/>
<path fill-rule="evenodd" clip-rule="evenodd" d="M21.3203 9.61133L22.763 11.2975L22.9691 11.1851L21.8824 9.9111L21.3203 9.61133ZM23.9245 12.2718L23.7185 12.4029L23.9995 12.7402V12.3842L23.9245 12.2718Z" fill="#222427"/>
<path fill-rule="evenodd" clip-rule="evenodd" d="M20.8516 9.36719L22.594 11.3906L22.8188 11.2782L21.4324 9.66696L20.8516 9.36719ZM23.7556 12.3649L23.5495 12.496L23.9991 13.0206V12.6646L23.7556 12.3649Z" fill="#222427"/>
<path fill-rule="evenodd" clip-rule="evenodd" d="M20.4033 9.125L22.4455 11.4857L22.6516 11.3733L20.9654 9.42476L20.4033 9.125ZM23.5884 12.4787L23.3823 12.5911L24.0005 13.3218V12.9658L23.5884 12.4787Z" fill="#222427"/>
<path fill-rule="evenodd" clip-rule="evenodd" d="M19.9531 8.88086L22.2763 11.5788L22.4824 11.4664L20.5152 9.18063L19.9531 8.88086ZM23.4192 12.5718L23.2131 12.6842L24 13.6022V13.2462L23.4192 12.5718Z" fill="#222427"/>
<path fill-rule="evenodd" clip-rule="evenodd" d="M19.4844 8.63672L22.1073 11.6719L22.3134 11.5595L20.0652 8.93649L19.4844 8.63672ZM23.2502 12.6649L23.0441 12.7773L23.9996 13.8827V13.5267L23.2502 12.6649Z" fill="#222427"/>
<path fill-rule="evenodd" clip-rule="evenodd" d="M19.0352 8.39453L21.9392 11.7857L22.1453 11.6545L19.5972 8.6943L19.0352 8.39453ZM23.082 12.7599L22.8759 12.8723L24.0001 14.1838V13.8278L23.082 12.7599Z" fill="#222427"/>
<path fill-rule="evenodd" clip-rule="evenodd" d="M18.5664 8.15234L21.7702 11.8807L21.9763 11.7496L19.1472 8.45211L18.5664 8.15234ZM22.9318 12.855L22.707 12.9674L23.9997 14.4662V14.1103L22.9318 12.855Z" fill="#222427"/>
<path fill-rule="evenodd" clip-rule="evenodd" d="M18.1162 7.90625L21.601 11.9719L21.8259 11.8407L18.697 8.20602L18.1162 7.90625ZM22.7626 12.9461L22.5565 13.0585L23.9992 14.7635V14.3888L22.7626 12.9461Z" fill="#222427"/>
<path fill-rule="evenodd" clip-rule="evenodd" d="M17.667 7.66211L21.4516 12.065L21.6577 11.9338L18.2291 7.96188L17.667 7.66211ZM22.5945 13.0392L22.3884 13.1516L23.9996 15.0439V14.6879L22.5945 13.0392Z" fill="#222427"/>
<path fill-rule="evenodd" clip-rule="evenodd" d="M17.1992 7.40039L21.2836 12.1592L21.4897 12.0281L17.78 7.71889L17.1992 7.40039ZM22.4265 13.1335L22.2204 13.2459L24.0002 15.3255V14.9696L22.4265 13.1335Z" fill="#222427"/>
<path fill-rule="evenodd" clip-rule="evenodd" d="M16.749 7.1582L21.1144 12.2543L21.3205 12.1418L17.3298 7.47671L16.749 7.1582ZM22.2573 13.2285L22.0512 13.3409L23.9997 15.6267V15.252L22.2573 13.2285Z" fill="#222427"/>
<path fill-rule="evenodd" clip-rule="evenodd" d="M16.2998 6.93164L20.9462 12.3462L21.1523 12.2338L16.8619 7.23141L16.2998 6.93164ZM22.0891 13.3205L21.883 13.4329L24.0001 15.906V15.55L22.0891 13.3205Z" fill="#222427"/>
<path fill-rule="evenodd" clip-rule="evenodd" d="M16 6.85742L20.7775 12.4406L20.9836 12.3282L16.4122 6.98857L16.2998 6.93236C16.2061 6.87616 16.1124 6.85742 16 6.85742ZM21.9204 13.4149L21.7143 13.5273L24.0001 16.1877V15.8317L21.9204 13.4149Z" fill="#222427"/>
<path fill-rule="evenodd" clip-rule="evenodd" d="M15.9992 6.85742C15.9243 6.85742 15.8494 6.87616 15.7744 6.89489L20.6082 12.5343L20.833 12.4219L16.0554 6.85742C16.0367 6.85742 16.018 6.85742 15.9992 6.85742ZM21.7698 13.5085L21.5637 13.621L23.9993 16.4875V16.1128L21.7698 13.5085Z" fill="#222427"/>
<path fill-rule="evenodd" clip-rule="evenodd" d="M15.8303 6.87695C15.7928 6.89569 15.7366 6.91442 15.7179 6.93316L15.6055 6.98937L20.458 12.6288L20.6641 12.5163L15.8303 6.87695ZM21.6008 13.603L21.3947 13.7342L23.999 16.7693V16.4133L21.6008 13.603Z" fill="#222427"/>
<path fill-rule="evenodd" clip-rule="evenodd" d="M15.6436 6.95117L15.4375 7.06359L20.29 12.7217L20.4961 12.6093L15.6436 6.95117ZM21.4329 13.696L21.2268 13.8271L23.9996 17.0496V16.6937L21.4329 13.696Z" fill="#222427"/>
<path fill-rule="evenodd" clip-rule="evenodd" d="M15.4756 7.04688L15.2695 7.15929L20.122 12.8174L20.3281 12.705L15.4756 7.04688ZM21.2649 13.7917L21.0588 13.9228L24.0003 17.3514V16.9955L21.2649 13.7917Z" fill="#222427"/>
<path fill-rule="evenodd" clip-rule="evenodd" d="M15.3057 7.13867L15.0996 7.25109L19.9521 12.9092L20.1582 12.7968L15.3057 7.13867ZM21.095 13.8835L20.8889 14.0146L23.999 17.6306V17.2746L21.095 13.8835Z" fill="#222427"/>
<path fill-rule="evenodd" clip-rule="evenodd" d="M15.1377 7.23242L14.9316 7.34484L19.7842 13.003L19.9902 12.8906L15.1377 7.23242ZM20.927 13.9772L20.7209 14.1084L23.9996 17.9117V17.5557L20.927 13.9772Z" fill="#222427"/>
<path fill-rule="evenodd" clip-rule="evenodd" d="M14.9688 7.32617L14.7627 7.43858L19.6152 13.0967L19.8213 12.9843L14.9688 7.32617ZM20.7768 14.071L20.5707 14.2021L23.9993 18.2115V17.8556L20.7768 14.071Z" fill="#222427"/>
<path fill-rule="evenodd" clip-rule="evenodd" d="M14.8008 7.40039L14.5947 7.53154L19.466 13.1897L19.6721 13.0773L14.8008 7.40039ZM20.6088 14.1827L20.4027 14.2951L24 18.4918V18.1359L20.6088 14.1827Z" fill="#222427"/>
<path fill-rule="evenodd" clip-rule="evenodd" d="M14.6309 7.49609L14.4248 7.60851L19.2961 13.2854L19.5022 13.173L14.6309 7.49609ZM20.4389 14.2784L20.2328 14.3908L23.9987 18.7936V18.4189L20.4389 14.2784Z" fill="#222427"/>
<path fill-rule="evenodd" clip-rule="evenodd" d="M14.4629 7.58789L14.2568 7.7003L19.1281 13.3959L19.3342 13.2648L14.4629 7.58789ZM20.2709 14.3702L20.0648 14.4826L23.9993 19.0728V18.7168L20.2709 14.3702Z" fill="#222427"/>
<path fill-rule="evenodd" clip-rule="evenodd" d="M14.295 7.68164L14.0889 7.79405L18.9601 13.4897L19.1662 13.3585L14.295 7.68164ZM20.103 14.4639L19.8969 14.5763L24 19.3539V18.9979L20.103 14.4639Z" fill="#222427"/>
<path fill-rule="evenodd" clip-rule="evenodd" d="M14.126 7.77539L13.9199 7.8878L18.7912 13.5834L18.9973 13.4523L14.126 7.77539ZM19.934 14.5577L19.728 14.6701L23.9996 19.6537V19.279L19.934 14.5577Z" fill="#222427"/>
<path fill-rule="evenodd" clip-rule="evenodd" d="M13.9571 7.86914L13.751 7.98155L18.6222 13.6772L18.8283 13.546L13.9571 7.86914ZM19.7838 14.6514L19.5778 14.7638L23.9993 19.9348V19.5789L19.7838 14.6514Z" fill="#222427"/>
<path fill-rule="evenodd" clip-rule="evenodd" d="M13.7893 7.94336L13.5645 8.05577L18.4732 13.7701L18.6793 13.639L13.7893 7.94336ZM19.6161 14.7444L19.41 14.8568L24.0002 20.2151V19.8592L19.6161 14.7444Z" fill="#222427"/>
<path fill-rule="evenodd" clip-rule="evenodd" d="M13.6203 8.03711L13.3955 8.14952L18.323 13.8826C18.3417 13.8451 18.3604 13.8264 18.3979 13.8077L18.5103 13.7327L13.6203 8.03711ZM19.4471 14.8381L19.241 14.9505L23.9624 20.4588C23.9811 20.4026 23.9998 20.3464 23.9998 20.2902V20.1403L19.4471 14.8381Z" fill="#222427"/>
<path fill-rule="evenodd" clip-rule="evenodd" d="M13.4514 8.13086L13.2266 8.24327L18.2664 14.1075V14.0326C18.2664 13.9764 18.3039 13.9014 18.3414 13.8452L13.4514 8.13086ZM19.2782 14.9319L19.1283 15.0256C19.1095 15.0256 19.0908 15.0443 19.0721 15.0443L23.8684 20.6462C23.9246 20.5713 23.962 20.4963 23.9808 20.4214L19.2782 14.9319Z" fill="#222427"/>
<path fill-rule="evenodd" clip-rule="evenodd" d="M13.2824 8.22656L13.0576 8.33898L18.2661 14.4093V14.0346L13.2824 8.22656ZM18.7532 14.9526L23.7369 20.7794C23.7931 20.7419 23.8493 20.667 23.9055 20.6108L19.1092 15.0276C19.0342 15.065 18.9218 15.065 18.8469 15.0276L18.7532 14.9526Z" fill="#222427"/>
<path fill-rule="evenodd" clip-rule="evenodd" d="M13.1145 8.31836L12.8896 8.43077L23.5689 20.8712L23.7188 20.7962C23.7375 20.7775 23.7562 20.7588 23.775 20.74L18.8663 15.0257H18.8475L18.4166 14.7634C18.3792 14.7447 18.3604 14.7072 18.3229 14.6697C18.2855 14.6135 18.2855 14.576 18.2667 14.5386V14.3325L13.1145 8.31836Z" fill="#222427"/>
<path fill-rule="evenodd" clip-rule="evenodd" d="M12.9465 8.41211L12.7217 8.52452L23.4009 20.9649L23.607 20.8525L12.9465 8.41211Z" fill="#222427"/>
<path fill-rule="evenodd" clip-rule="evenodd" d="M12.7766 8.48828L12.5518 8.6007L23.2497 21.0598L23.4558 20.9474L12.7766 8.48828Z" fill="#222427"/>
<path fill-rule="evenodd" clip-rule="evenodd" d="M12.6086 8.58203L12.3838 8.69445L23.0818 21.1536L23.2879 21.0412L12.6086 8.58203Z" fill="#222427"/>
<path fill-rule="evenodd" clip-rule="evenodd" d="M12.4397 8.67773L12.2148 8.79015L22.9128 21.2493L23.1189 21.1369L12.4397 8.67773Z" fill="#222427"/>
<path fill-rule="evenodd" clip-rule="evenodd" d="M12.253 8.76953L12.0469 8.88195L22.7449 21.3598L22.951 21.2287L12.253 8.76953Z" fill="#222427"/>
<path fill-rule="evenodd" clip-rule="evenodd" d="M12.083 8.86328L11.877 8.9757L22.575 21.4536L22.781 21.3224L12.083 8.86328Z" fill="#222427"/>
<path fill-rule="evenodd" clip-rule="evenodd" d="M11.9151 8.95703L11.709 9.06944L22.4257 21.5473L22.6318 21.4162L11.9151 8.95703Z" fill="#222427"/>
<path fill-rule="evenodd" clip-rule="evenodd" d="M11.7471 9.03125L11.541 9.14366L22.2578 21.6403L22.4638 21.5091L11.7471 9.03125Z" fill="#222427"/>
<path fill-rule="evenodd" clip-rule="evenodd" d="M11.5782 9.125L11.3721 9.23741L22.0888 21.734L22.2949 21.6216L11.5782 9.125Z" fill="#222427"/>
<path fill-rule="evenodd" clip-rule="evenodd" d="M11.4092 9.21875L11.2031 9.33116L16.4116 15.4015L16.5802 15.5139C16.6552 15.5514 16.7301 15.645 16.7301 15.7387V15.7575L21.9199 21.8278L22.126 21.7154L11.4092 9.21875Z" fill="#222427"/>
<path fill-rule="evenodd" clip-rule="evenodd" d="M11.2403 9.3125L11.0342 9.42491L15.9242 15.1393L16.5424 15.4765L11.2403 9.3125ZM16.711 15.6826C16.711 15.7013 16.7298 15.72 16.7298 15.7388V16.0573L21.7509 21.9215L21.957 21.8091L16.711 15.6826Z" fill="#222427"/>
<path fill-rule="evenodd" clip-rule="evenodd" d="M11.0723 9.4082L10.8662 9.52062L15.4377 14.8603L16.056 15.1975L11.0723 9.4082ZM16.7304 15.9844V16.3404L21.6017 22.0172L21.8078 21.9048L16.7304 15.9844Z" fill="#222427"/>
<path fill-rule="evenodd" clip-rule="evenodd" d="M10.9034 9.5L10.6973 9.61241L14.969 14.5773L15.5685 14.9146L10.9034 9.5ZM16.7301 16.2635V16.6382L21.4327 22.109L21.6388 21.9966L16.7301 16.2635Z" fill="#222427"/>
<path fill-rule="evenodd" clip-rule="evenodd" d="M10.7344 9.57422L10.5283 9.68663L14.4815 14.2956L15.0811 14.6516L10.7344 9.57422ZM16.7298 16.5626V16.9186L21.2638 22.202L21.4699 22.0896L16.7298 16.5626Z" fill="#222427"/>
<path fill-rule="evenodd" clip-rule="evenodd" d="M10.5664 9.66797L10.3604 9.78038L13.995 14.0146L14.5946 14.3706L10.5664 9.66797ZM16.7304 16.8437V17.1997L21.0958 22.2957L21.3019 22.1833L16.7304 16.8437Z" fill="#222427"/>
<path fill-rule="evenodd" clip-rule="evenodd" d="M10.3975 9.76172L10.1914 9.87413L13.5076 13.7524L14.1071 14.0896L10.3975 9.76172ZM16.7301 17.1248V17.4995L20.9269 22.4082L21.133 22.2771L16.7301 17.1248Z" fill="#222427"/>
<path fill-rule="evenodd" clip-rule="evenodd" d="M10.2295 9.85742L10.0234 9.96984L13.0211 13.4734L13.6207 13.8106L10.2295 9.85742ZM16.7308 17.4266V17.7826L20.7776 22.5039L20.9837 22.3728L16.7308 17.4266Z" fill="#222427"/>
<path fill-rule="evenodd" clip-rule="evenodd" d="M10.0596 9.94922L9.85352 10.0616L12.5327 13.1905L13.151 13.5277L10.0596 9.94922ZM16.7295 17.7057V18.0617L20.6077 22.5957L20.8138 22.4646L16.7295 17.7057Z" fill="#222427"/>
<path fill-rule="evenodd" clip-rule="evenodd" d="M9.89164 10.043L9.68555 10.1554L12.0462 12.9095L12.6645 13.2655L9.89164 10.043ZM14.8004 16.1133L15.2875 16.6754V16.4693C15.2875 16.4318 15.25 16.3756 15.2125 16.3568L14.8004 16.1133ZM16.7301 17.9869V18.3616L20.4397 22.6895L20.6458 22.5583L16.7301 17.9869Z" fill="#222427"/>
<path fill-rule="evenodd" clip-rule="evenodd" d="M9.72269 10.1172L9.5166 10.2296L11.5588 12.6277L12.1771 12.9837L9.72269 10.1172ZM14.3129 15.8315L15.2872 16.9557V16.5997L14.9312 16.1875L14.3129 15.8315ZM16.7298 18.2859V18.6419L20.2708 22.7824L20.4769 22.67L16.7298 18.2859Z" fill="#222427"/>
<path fill-rule="evenodd" clip-rule="evenodd" d="M9.55472 10.2109L9.34863 10.3234L11.091 12.3655L11.6906 12.7028L9.55472 10.2109ZM13.8264 15.5693L15.2878 17.2555V16.8995L14.4447 15.9065L13.8264 15.5693ZM16.7304 18.567V18.923L20.1028 22.8762L20.3089 22.7637L16.7304 18.567Z" fill="#222427"/>
<path fill-rule="evenodd" clip-rule="evenodd" d="M9.38675 10.3047L9.18066 10.4171L10.6046 12.0846L11.2041 12.4218L9.38675 10.3047ZM13.3587 15.2884L15.2885 17.5366V17.1806L13.9582 15.6256L13.3587 15.2884ZM16.7311 18.8668V19.2228L19.9536 22.9699L20.1597 22.8575L16.7311 18.8668Z" fill="#222427"/>
<path fill-rule="evenodd" clip-rule="evenodd" d="M9.21683 10.3984L9.01074 10.5109L10.1161 11.8036L10.7157 12.1408L9.21683 10.3984ZM12.8703 15.0074L15.2872 17.8177V17.4617L13.4698 15.3633L12.8703 15.0074ZM16.7298 19.1479V19.5039L19.7837 23.0637L19.9898 22.9512L16.7298 19.1479Z" fill="#222427"/>
<path fill-rule="evenodd" clip-rule="evenodd" d="M9.04886 10.4902L8.84277 10.6026L9.62966 11.5207L10.2292 11.8767L9.04886 10.4902ZM12.3838 14.7245L15.2878 18.1156V17.7596L12.9833 15.0805L12.3838 14.7245ZM16.7304 19.4271V19.7831L19.6157 23.1555L19.8218 23.043L16.7304 19.4271Z" fill="#222427"/>
<path fill-rule="evenodd" clip-rule="evenodd" d="M8.87992 10.5859L8.67383 10.6984L9.14222 11.2417L9.76049 11.5977L8.87992 10.5859ZM11.8963 14.4642L15.2875 18.3987V18.0427L12.4959 14.8014L11.8963 14.4642ZM16.7301 19.7289V20.0849L19.4468 23.2512L19.6529 23.1387L16.7301 19.7289Z" fill="#222427"/>
<path fill-rule="evenodd" clip-rule="evenodd" d="M8.71115 10.6621L8.48633 10.7745L8.65495 10.9806L9.27322 11.3179L8.71115 10.6621ZM11.4091 14.1844L15.2873 18.6996V18.325L12.0274 14.5216L11.4091 14.1844ZM16.73 20.0111V20.3671L19.278 23.3648L19.4841 23.2337L16.73 20.0111Z" fill="#222427"/>
<path fill-rule="evenodd" clip-rule="evenodd" d="M8.54326 10.7559L8.41211 10.8308L8.78682 11.0369L8.54326 10.7559ZM10.9227 13.9034L15.2881 18.9808V18.6248L11.5409 14.2594L10.9227 13.9034ZM16.7307 20.2922V20.667L19.1289 23.4586L19.3349 23.3274L16.7307 20.2922Z" fill="#222427"/>
<path fill-rule="evenodd" clip-rule="evenodd" d="M10.4541 13.6211L15.2879 19.2605V18.9045L11.0536 13.9771L10.4541 13.6211ZM16.7305 20.5907V20.9467L18.96 23.5509L19.1661 23.4198L16.7305 20.5907Z" fill="#222427"/>
<path fill-rule="evenodd" clip-rule="evenodd" d="M9.9668 13.3613L15.2877 19.5628V19.1881L10.5663 13.6986L9.9668 13.3613ZM16.7303 20.8743V21.2303L18.7912 23.6471L18.9973 23.516L16.7303 20.8743Z" fill="#222427"/>
<path fill-rule="evenodd" clip-rule="evenodd" d="M9.47949 13.0801L15.2875 19.8436V19.4876L10.079 13.4173L9.47949 13.0801ZM16.7301 21.1551V21.5298L18.6224 23.7406L18.8285 23.6282L16.7301 21.1551Z" fill="#222427"/>
<path fill-rule="evenodd" clip-rule="evenodd" d="M8.99316 12.7969L15.2883 20.1225V19.7665L9.5927 13.1529L8.99316 12.7969ZM16.7309 21.4527V21.8087L18.4546 23.8321L18.6607 23.7197L16.7309 21.4527Z" fill="#222427"/>
<path fill-rule="evenodd" clip-rule="evenodd" d="M8.50586 12.5156L15.2881 20.422V20.0661L9.1054 12.8716L8.50586 12.5156ZM16.7308 21.7335V22.0895L18.3045 23.9256L18.5106 23.8132L16.7308 21.7335Z" fill="#222427"/>
<path fill-rule="evenodd" clip-rule="evenodd" d="M8.01758 12.2539L15.287 20.7037V20.3477L8.63585 12.5911L8.01758 12.2539ZM16.7296 22.0151V22.3898L18.1348 24.0198L18.3409 23.9074L16.7296 22.0151Z" fill="#222427"/>
<path fill-rule="evenodd" clip-rule="evenodd" d="M8 12.2363V12.4986L15.2881 20.9858V20.6299L8.14988 12.3113L8 12.2363ZM16.7308 22.3161V22.5409C16.7308 22.5783 16.712 22.6158 16.6933 22.6346L17.9673 24.1147L18.1734 24.0023L16.7308 22.3161Z" fill="#222427"/>
<path fill-rule="evenodd" clip-rule="evenodd" d="M8 12.4238V12.7985L15.2881 21.2858V20.9298L8 12.4238ZM16.712 22.5972C16.6933 22.6722 16.6371 22.7471 16.5809 22.7659L16.5621 22.7846L17.7987 24.2085L18.0048 24.0961L16.712 22.5972Z" fill="#222427"/>
<path fill-rule="evenodd" clip-rule="evenodd" d="M8 12.7227V13.0786L15.2881 21.5659V21.2099L8 12.7227ZM16.5996 22.7462C16.5996 22.7649 16.5996 22.7649 16.5809 22.7649L16.3935 22.8773L17.6301 24.3012L17.8362 24.1888L16.5996 22.7462Z" fill="#222427"/>
<path fill-rule="evenodd" clip-rule="evenodd" d="M8 13.0039V13.3599L15.2881 21.8471V21.4911L8 13.0039ZM16.4497 22.8401L16.2249 22.9712L17.4802 24.4139L17.6863 24.2827L16.4497 22.8401Z" fill="#222427"/>
<path fill-rule="evenodd" clip-rule="evenodd" d="M8 13.3047V13.6607L15.2881 22.1479V21.7919L8 13.3047ZM16.2811 22.9348L16.15 23.0097C16.1125 23.0284 16.075 23.0284 16.0376 23.0284L17.3116 24.5086L17.5177 24.3774L16.2811 22.9348Z" fill="#222427"/>
<path fill-rule="evenodd" clip-rule="evenodd" d="M8 13.5859V13.9419L15.2881 22.4291V22.0731L8 13.5859ZM15.7003 22.935L17.1429 24.6024L17.349 24.4713L16.0938 23.0286C16.075 23.0286 16.0376 23.0474 16.0188 23.0474H16.0001C15.9439 23.0474 15.9064 23.0286 15.8689 23.0099L15.7003 22.935Z" fill="#222427"/>
<path fill-rule="evenodd" clip-rule="evenodd" d="M8 13.8652V14.2399L16.9743 24.6944L17.1804 24.5632L15.8315 22.9894L15.4193 22.7646C15.3443 22.7271 15.2881 22.6335 15.2881 22.5398V22.3524L8 13.8652Z" fill="#222427"/>
<path fill-rule="evenodd" clip-rule="evenodd" d="M8 14.1641V14.52L16.8057 24.7871L17.0118 24.6747L8 14.1641Z" fill="#222427"/>
<path fill-rule="evenodd" clip-rule="evenodd" d="M8 14.4453V14.8013L16.6371 24.881L16.8432 24.7686L8 14.4453Z" fill="#222427"/>
<path fill-rule="evenodd" clip-rule="evenodd" d="M8 14.7266V15.1013L16.4872 24.9749L16.6933 24.8625L8 14.7266Z" fill="#222427"/>
<path fill-rule="evenodd" clip-rule="evenodd" d="M8 15.0254V15.3813L16.3186 25.0676L16.5247 24.9552L8 15.0254Z" fill="#222427"/>
<path fill-rule="evenodd" clip-rule="evenodd" d="M8 15.3066V15.6626L16.1312 25.1428C16.1874 25.1241 16.2437 25.1054 16.2999 25.0866L16.3561 25.0492L8 15.3066Z" fill="#222427"/>
<path fill-rule="evenodd" clip-rule="evenodd" d="M8 15.5879V15.9626L15.8877 25.143C15.9251 25.143 15.9626 25.143 16.0001 25.143C16.0563 25.143 16.1125 25.143 16.1687 25.1243L8 15.5879Z" fill="#222427"/>
<path fill-rule="evenodd" clip-rule="evenodd" d="M8 15.8887V16.2446L15.4568 24.938L15.7191 25.0878C15.7753 25.1253 15.8689 25.1441 15.9439 25.1441L8 15.8887Z" fill="#222427"/>
<path fill-rule="evenodd" clip-rule="evenodd" d="M8 16.1699V16.5259L14.9696 24.6571L15.5879 25.0131L8 16.1699Z" fill="#222427"/>
<path fill-rule="evenodd" clip-rule="evenodd" d="M8 16.4688V16.8247L14.4825 24.3752L15.1008 24.7311L8 16.4688Z" fill="#222427"/>
<path fill-rule="evenodd" clip-rule="evenodd" d="M8 16.75V17.106L13.9954 24.0943L14.5949 24.4503L8 16.75Z" fill="#222427"/>
<path fill-rule="evenodd" clip-rule="evenodd" d="M8 17.0312V17.3872L13.5082 23.8135L14.1078 24.1695L8 17.0312Z" fill="#222427"/>
<path fill-rule="evenodd" clip-rule="evenodd" d="M8 17.3301V17.6861L13.0024 23.5128L13.6207 23.8688L8 17.3301Z" fill="#222427"/>
<path fill-rule="evenodd" clip-rule="evenodd" d="M8 17.6133V17.9693L12.5153 23.2339L13.1335 23.5899L8 17.6133Z" fill="#222427"/>
<path fill-rule="evenodd" clip-rule="evenodd" d="M8 17.8926V18.2486L12.0281 22.9512L12.6464 23.3071L8 17.8926Z" fill="#222427"/>
<path fill-rule="evenodd" clip-rule="evenodd" d="M8 18.1914V18.5474L11.541 22.6692L12.1593 23.0252L8 18.1914Z" fill="#222427"/>
<path fill-rule="evenodd" clip-rule="evenodd" d="M8 18.4746V18.8306L11.0539 22.3903L11.6722 22.7463L8 18.4746Z" fill="#222427"/>
<path fill-rule="evenodd" clip-rule="evenodd" d="M8 18.7559V19.1306L10.5668 22.1095L11.1663 22.4655L8 18.7559Z" fill="#222427"/>
<path fill-rule="evenodd" clip-rule="evenodd" d="M8 19.0547V19.4107L10.0609 21.8276L10.6792 22.1835L8 19.0547Z" fill="#222427"/>
<path fill-rule="evenodd" clip-rule="evenodd" d="M8 19.3379V19.6939L9.57379 21.5487L10.1921 21.8859L8 19.3379Z" fill="#222427"/>
<path fill-rule="evenodd" clip-rule="evenodd" d="M8 19.6172V19.9919L9.08666 21.2472L9.70493 21.6032L8 19.6172Z" fill="#222427"/>
<path fill-rule="evenodd" clip-rule="evenodd" d="M8 19.916V20.272L8.59954 20.9652L9.21781 21.3212L8 19.916Z" fill="#222427"/>
<path fill-rule="evenodd" clip-rule="evenodd" d="M8 20.1973V20.2909C8 20.4783 8.13115 20.7031 8.28103 20.7968L8.73069 21.0404L8 20.1973Z" fill="#222427"/>
<path fill-rule="evenodd" clip-rule="evenodd" d="M8.11133 20.6289C8.1488 20.6664 8.16753 20.7039 8.20501 20.7226L8.11133 20.6289Z" fill="#222427"/>
</svg>
