<svg width="32" height="32" viewBox="0 0 32 32" fill="none" xmlns="http://www.w3.org/2000/svg">
<path d="M28.2201 12.5979L25.5436 8.36934C25.5006 8.30799 25.4174 8.28982 25.3528 8.32916C24.6371 8.76562 21.0893 10.7563 20.3299 10.7575C19.6449 10.7585 18.7903 4.85992 18.6086 4.02982C18.5963 3.97352 18.5508 3.93114 18.4928 3.9218L12.7846 3.00191C12.7017 2.98854 12.6252 3.0469 12.6198 3.12909C12.5525 4.14718 12.2777 10.2987 11.7014 10.3691C11.0338 10.4506 8.10352 9.62732 5.00102 8.48691C4.92577 8.45925 4.84179 8.49798 4.81637 8.57271L3.00772 13.891C2.98525 13.9571 3.01294 14.0273 3.07669 14.0581C4.81781 14.8982 9.7814 17.681 9.77394 18.038C9.76131 18.6427 6.00402 23.7587 5.31938 24.5662C5.26603 24.6291 5.27969 24.7228 5.34834 24.7693L12.1472 29.3773C12.2164 29.4242 12.3111 29.4034 12.3518 29.3313C12.9149 28.3353 16.5187 22.1413 17.1128 22.1569C17.732 22.1732 22.2185 25.591 23.5546 26.6891C23.6142 26.7381 23.7018 26.7306 23.7526 26.6729L27.4414 22.4828C27.4882 22.4278 27.4851 22.3471 27.4338 22.2961C26.8013 21.6656 22.9095 17.8561 22.7963 17.2327C22.7097 16.7563 27.311 13.3248 28.1919 12.7857C28.2552 12.7469 28.2624 12.6582 28.2201 12.5979Z" fill="#212427"/>
</svg>
